{
	"asset":{
		"generator":"Khronos glTF Blender I/O v4.1.63",
		"version":"2.0"
	},
	"scene":0,
	"scenes":[
		{
			"name":"Scene",
			"nodes":[
				0,
				1
			]
		}
	],
	"nodes":[
		{
			"mesh":0,
			"name":"Sphere",
			"translation":[
				-0.6632857322692871,
				10.967537879943848,
				-0.035386085510253906
			]
		},
		{
			"mesh":1,
			"name":"Cube"
		}
	],
	"materials":[
		{
			"doubleSided":true,
			"name":"Material",
			"pbrMetallicRoughness":{
				"baseColorFactor":[
					0.800000011920929,
					0.800000011920929,
					0.800000011920929,
					1
				],
				"metallicFactor":0,
				"roughnessFactor":0.5
			}
		}
	],
	"meshes":[
		{
			"name":"Sphere",
			"primitives":[
				{
					"attributes":{
						"POSITION":0,
						"NORMAL":1,
						"TEXCOORD_0":2
					},
					"indices":3
				}
			]
		},
		{
			"name":"Cube",
			"primitives":[
				{
					"attributes":{
						"POSITION":4,
						"NORMAL":5,
						"TEXCOORD_0":6
					},
					"indices":7,
					"material":0
				}
			]
		}
	],
	"accessors":[
		{
			"bufferView":0,
			"componentType":5126,
			"count":1984,
			"max":[
				1.721700668334961,
				1.0634069442749023,
				1.0185081958770752
			],
			"min":[
				-0.2322213053703308,
				-1.0634069442749023,
				-1.0185089111328125
			],
			"type":"VEC3"
		},
		{
			"bufferView":1,
			"componentType":5126,
			"count":1984,
			"type":"VEC3"
		},
		{
			"bufferView":2,
			"componentType":5126,
			"count":1984,
			"type":"VEC2"
		},
		{
			"bufferView":3,
			"componentType":5123,
			"count":2880,
			"type":"SCALAR"
		},
		{
			"bufferView":4,
			"componentType":5126,
			"count":190,
			"max":[
				0,
				9.904132843017578,
				1.0488924980163574
			],
			"min":[
				-3.474398374557495,
				-1.2350319623947144,
				-1.0018534660339355
			],
			"type":"VEC3"
		},
		{
			"bufferView":5,
			"componentType":5126,
			"count":190,
			"type":"VEC3"
		},
		{
			"bufferView":6,
			"componentType":5126,
			"count":190,
			"type":"VEC2"
		},
		{
			"bufferView":7,
			"componentType":5123,
			"count":306,
			"type":"SCALAR"
		}
	],
	"bufferViews":[
		{
			"buffer":0,
			"byteLength":23808,
			"byteOffset":0,
			"target":34962
		},
		{
			"buffer":0,
			"byteLength":23808,
			"byteOffset":23808,
			"target":34962
		},
		{
			"buffer":0,
			"byteLength":15872,
			"byteOffset":47616,
			"target":34962
		},
		{
			"buffer":0,
			"byteLength":5760,
			"byteOffset":63488,
			"target":34963
		},
		{
			"buffer":0,
			"byteLength":2280,
			"byteOffset":69248,
			"target":34962
		},
		{
			"buffer":0,
			"byteLength":2280,
			"byteOffset":71528,
			"target":34962
		},
		{
			"buffer":0,
			"byteLength":1520,
			"byteOffset":73808,
			"target":34962
		},
		{
			"buffer":0,
			"byteLength":612,
			"byteOffset":75328,
			"target":34963
		}
	],
	"buffers":[
		{
			"byteLength":75940,
			"uri":"FPS_player.bin"
		}
	]
}
